<mxfile host="app.diagrams.net" modified="2022-09-28T03:06:00.366Z" agent="5.0 (Windows NT 10.0; Win64; x64) AppleWebKit/537.36 (KHTML, like Gecko) Chrome/83.0.4103.97 Safari/537.36" etag="HDe1se5om0DXlGVnI6cH" version="20.3.7" type="github">
  <diagram id="N5TM5tR1uxaeoewKdaU_" name="第 1 页">
    <mxGraphModel dx="1635" dy="902" grid="1" gridSize="10" guides="1" tooltips="1" connect="1" arrows="1" fold="1" page="1" pageScale="1" pageWidth="827" pageHeight="1169" math="0" shadow="0">
      <root>
        <mxCell id="0" />
        <mxCell id="1" parent="0" />
        <mxCell id="AbS-uv_CiZhEH7uLBlxb-1" value="1" style="ellipse;whiteSpace=wrap;html=1;aspect=fixed;" vertex="1" parent="1">
          <mxGeometry x="70" y="230" width="60" height="60" as="geometry" />
        </mxCell>
        <mxCell id="AbS-uv_CiZhEH7uLBlxb-2" value="" style="endArrow=classic;html=1;rounded=0;" edge="1" parent="1">
          <mxGeometry width="50" height="50" relative="1" as="geometry">
            <mxPoint x="100" y="390" as="sourcePoint" />
            <mxPoint x="99.5" y="310" as="targetPoint" />
          </mxGeometry>
        </mxCell>
        <mxCell id="AbS-uv_CiZhEH7uLBlxb-3" value="p1" style="text;html=1;strokeColor=none;fillColor=none;align=center;verticalAlign=middle;whiteSpace=wrap;rounded=0;" vertex="1" parent="1">
          <mxGeometry x="70" y="410" width="60" height="30" as="geometry" />
        </mxCell>
        <mxCell id="AbS-uv_CiZhEH7uLBlxb-4" value="1" style="ellipse;whiteSpace=wrap;html=1;aspect=fixed;" vertex="1" parent="1">
          <mxGeometry x="200" y="230" width="60" height="60" as="geometry" />
        </mxCell>
        <mxCell id="AbS-uv_CiZhEH7uLBlxb-5" value="" style="endArrow=classic;html=1;rounded=0;" edge="1" parent="1">
          <mxGeometry width="50" height="50" relative="1" as="geometry">
            <mxPoint x="230" y="390" as="sourcePoint" />
            <mxPoint x="229.5" y="311" as="targetPoint" />
          </mxGeometry>
        </mxCell>
        <mxCell id="AbS-uv_CiZhEH7uLBlxb-6" value="p3" style="text;html=1;strokeColor=none;fillColor=none;align=center;verticalAlign=middle;whiteSpace=wrap;rounded=0;" vertex="1" parent="1">
          <mxGeometry x="200" y="410" width="60" height="30" as="geometry" />
        </mxCell>
        <mxCell id="AbS-uv_CiZhEH7uLBlxb-7" value="1" style="ellipse;whiteSpace=wrap;html=1;aspect=fixed;" vertex="1" parent="1">
          <mxGeometry x="320" y="230" width="60" height="60" as="geometry" />
        </mxCell>
        <mxCell id="AbS-uv_CiZhEH7uLBlxb-8" value="" style="endArrow=classic;html=1;rounded=0;" edge="1" parent="1">
          <mxGeometry width="50" height="50" relative="1" as="geometry">
            <mxPoint x="350" y="390" as="sourcePoint" />
            <mxPoint x="349.5" y="311" as="targetPoint" />
          </mxGeometry>
        </mxCell>
        <mxCell id="AbS-uv_CiZhEH7uLBlxb-9" value="p5" style="text;html=1;strokeColor=none;fillColor=none;align=center;verticalAlign=middle;whiteSpace=wrap;rounded=0;" vertex="1" parent="1">
          <mxGeometry x="320" y="410" width="60" height="30" as="geometry" />
        </mxCell>
        <mxCell id="AbS-uv_CiZhEH7uLBlxb-12" value="1" style="text;html=1;strokeColor=none;fillColor=none;align=center;verticalAlign=middle;whiteSpace=wrap;rounded=0;" vertex="1" parent="1">
          <mxGeometry x="40" y="480" width="60" height="30" as="geometry" />
        </mxCell>
        <mxCell id="AbS-uv_CiZhEH7uLBlxb-13" value="3" style="text;html=1;strokeColor=none;fillColor=none;align=center;verticalAlign=middle;whiteSpace=wrap;rounded=0;" vertex="1" parent="1">
          <mxGeometry x="100" y="480" width="60" height="30" as="geometry" />
        </mxCell>
        <mxCell id="AbS-uv_CiZhEH7uLBlxb-14" value="5" style="text;html=1;strokeColor=none;fillColor=none;align=center;verticalAlign=middle;whiteSpace=wrap;rounded=0;" vertex="1" parent="1">
          <mxGeometry x="170" y="480" width="60" height="30" as="geometry" />
        </mxCell>
        <mxCell id="AbS-uv_CiZhEH7uLBlxb-15" value="7" style="text;html=1;strokeColor=none;fillColor=none;align=center;verticalAlign=middle;whiteSpace=wrap;rounded=0;" vertex="1" parent="1">
          <mxGeometry x="240" y="480" width="60" height="30" as="geometry" />
        </mxCell>
      </root>
    </mxGraphModel>
  </diagram>
</mxfile>
